<svg width="150" height="50" viewBox="0 0 223 25" fill="none" xmlns="http://www.w3.org/2000/svg">
<g clip-path="url(#clip0_1_934)">
<path d="M115.423 11.6847C115.198 10.0624 114.452 8.65385 113.242 7.48633C112.947 7.20123 112.637 6.93311 112.324 6.67177C111.81 6.24753 111.283 5.83686 110.825 5.3617C110.097 4.60824 109.696 3.7292 109.548 2.72119V23.7163C109.548 23.8521 109.661 23.9607 109.802 23.9607H115.268C115.409 23.9607 115.525 23.8521 115.522 23.7163C115.522 21.9243 115.493 12.1904 115.423 11.6881" fill="white"/>
<path d="M70.8999 17.5314C70.6782 15.909 69.943 14.5005 68.747 13.333C68.4585 13.0513 68.1525 12.7798 67.8394 12.5185C67.3363 12.0942 66.8122 11.6835 66.3619 11.2084C65.6443 10.4549 65.2503 9.57249 65.1025 8.56787V23.7152C65.1025 23.8509 65.2151 23.9629 65.3558 23.9629H70.738C70.8788 23.9629 70.9913 23.8509 70.9913 23.7152V18.8686C70.9913 18.3018 70.9702 18.0914 70.8963 17.5347" fill="white"/>
<path d="M56.54 1.29271V5.6302C56.54 5.76596 56.6526 5.87457 56.7933 5.87457H64.3531C64.5325 5.89833 64.6978 5.95263 64.8456 6.08499C65.1446 6.35312 65.0707 7.02173 65.1024 7.37131C65.1903 8.29447 65.6828 9.13618 66.3265 9.81836C66.9562 10.4836 67.7196 11.0164 68.4618 11.5629C69.0071 11.9634 69.5453 12.374 70.0202 12.8526C70.46 13.2972 70.963 13.8334 70.9947 14.4783V10.5447C70.9947 9.24139 70.9947 8.24017 70.9947 7.6598C70.9947 7.39846 71.0228 6.77058 71.1107 6.51942C71.2515 6.11893 71.5962 5.91869 72.0219 5.87457C72.0359 5.87457 78.1217 5.87457 79.4936 5.87457C79.6344 5.87457 79.7469 5.76596 79.7469 5.6302V1.29271C79.7469 1.15695 79.6308 1.04834 79.4901 1.04834H56.7933C56.6526 1.04834 56.54 1.16034 56.54 1.29271Z" fill="white"/>
<path d="M180.956 2.52467C181.807 2.04273 182.785 1.73048 183.767 1.62866C185.905 1.40466 188.146 2.10721 189.075 3.98408C189.49 4.82578 189.666 5.81004 189.655 6.76714C189.645 7.72424 189.451 8.68473 189.138 9.5468C188.931 10.1136 188.649 10.6329 188.287 11.0843C187.189 12.4419 184.963 13.1716 183.13 12.8491C182.342 12.71 181.603 12.4045 181.016 11.9158C180.34 11.3558 179.763 10.7279 179.763 9.86244V3.72614C179.763 3.19668 180.562 2.74867 180.959 2.52467M192.61 12.5912C194.911 11.6816 196.965 9.63504 196.994 7.15065C196.994 6.98435 196.99 6.81465 196.972 6.64495C196.825 5.12445 196.005 3.84832 194.862 2.89461C193.993 2.1683 192.937 1.68296 191.826 1.40126C191.122 1.22478 189.631 1.0415 189.036 1.0415H174.043C173.903 1.0415 173.787 1.15011 173.787 1.28587V23.7166C173.787 23.8524 173.899 23.961 174.043 23.961H179.51C179.651 23.961 179.763 23.8524 179.763 23.7166V20.3125C179.763 18.0182 179.763 15.1672 179.763 13.4159V13.4091C179.763 13.141 179.763 12.8695 179.763 12.6014C179.763 12.1839 179.932 12.0889 180.305 12.2688C181.075 12.6387 181.863 12.9747 182.613 13.3752C182.637 13.3888 182.662 13.4024 182.687 13.4159C183.573 13.8877 184.477 14.3493 185.286 14.933C186.968 16.1447 188.414 17.5668 189.005 19.6031C189.103 19.9425 189.152 20.2921 189.152 20.6417C189.152 21.6904 188.727 22.729 187.974 23.4994C187.882 23.5945 187.682 23.8015 187.692 23.866C187.692 23.866 187.689 23.8728 187.689 23.8761C187.689 23.8999 187.703 23.9203 187.721 23.9372C187.738 23.9542 187.763 23.9644 187.787 23.9644H196.677C196.821 23.9644 196.934 23.8524 196.934 23.7166C196.934 23.7166 196.934 23.7166 196.934 23.7132C196.934 23.7132 196.934 23.7132 196.934 23.7098C196.934 23.6793 196.927 23.6488 196.916 23.6216C196.902 23.5978 196.884 23.5741 196.87 23.5469C196.522 23.0175 195.488 21.8432 195.133 21.4189C194.239 20.3532 193.317 19.3079 192.308 18.344C190.426 16.5554 188.195 15.2555 185.814 14.1864C185.431 14.0133 184.657 13.7248 184.252 13.5653C184.66 13.5653 184.92 13.572 185.051 13.572C187.39 13.572 190.412 13.46 192.603 12.5946" fill="white"/>
<path d="M90.2137 2.52467C91.065 2.04273 92.0429 1.73048 93.0209 1.62866C95.1597 1.40466 97.4005 2.10721 98.3292 3.98408C98.7443 4.82578 98.9202 5.81004 98.9097 6.76714C98.8991 7.72424 98.7057 8.68473 98.3926 9.5468C98.185 10.1136 97.9036 10.6329 97.5413 11.0843C96.4437 12.4419 94.2169 13.1716 92.3842 12.8491C91.5962 12.71 90.8574 12.4045 90.27 11.9158C89.5946 11.3558 89.0176 10.7279 89.0176 9.86244V3.72614C89.0176 3.19668 89.8162 2.74867 90.2137 2.52467ZM101.865 12.5912C104.165 11.6816 106.22 9.63504 106.248 7.15065C106.248 6.98435 106.244 6.81465 106.227 6.64495C106.079 5.12445 105.259 3.84832 104.116 2.89461C103.247 2.1683 102.192 1.68296 101.08 1.40126C100.377 1.22478 98.8851 1.0415 98.2906 1.0415H83.2977C83.157 1.0415 83.0444 1.15011 83.0444 1.28587V23.7166C83.0444 23.8524 83.157 23.961 83.2977 23.961H88.7644C88.9051 23.961 89.0176 23.8524 89.0176 23.7166V20.3125C89.0176 18.0182 89.0176 15.1672 89.0176 13.4159V13.4091C89.0176 13.141 89.0176 12.8695 89.0176 12.6014C89.0176 12.1839 89.1865 12.0889 89.5594 12.2688C90.3263 12.6387 91.1178 12.9747 91.8671 13.3752C91.8917 13.3888 91.9163 13.4024 91.9409 13.4159C92.8274 13.8877 93.7315 14.3493 94.5406 14.933C96.2221 16.1447 97.6679 17.5668 98.2589 19.6031C98.3574 19.9425 98.4066 20.2921 98.4066 20.6417C98.4066 21.6904 97.9775 22.729 97.2282 23.4994C97.1367 23.5945 96.9362 23.8015 96.9468 23.866C96.9468 23.866 96.9432 23.8728 96.9432 23.8761C96.9432 23.8999 96.9573 23.9203 96.9749 23.9372C96.9925 23.9542 97.0136 23.9644 97.0417 23.9644H105.931C106.075 23.9644 106.188 23.8524 106.188 23.7166C106.188 23.7166 106.188 23.7166 106.188 23.7132C106.188 23.7132 106.188 23.7132 106.188 23.7098C106.188 23.6793 106.181 23.6488 106.17 23.6216C106.156 23.5978 106.139 23.5741 106.125 23.5469C105.776 23.0175 104.742 21.8432 104.387 21.4189C103.493 20.3532 102.575 19.3079 101.562 18.344C99.6801 16.5554 97.4533 15.2555 95.0683 14.1864C94.6848 14.0133 93.9109 13.7248 93.5063 13.5653C93.9144 13.5653 94.1782 13.572 94.3084 13.572C96.6477 13.572 99.6695 13.46 101.861 12.5946" fill="white"/>
<path d="M38.1337 2.52467C38.985 2.04273 39.963 1.73048 40.9409 1.62866C43.0797 1.40466 45.3206 2.10721 46.2493 3.98408C46.6644 4.82578 46.8403 5.81004 46.8297 6.76714C46.8192 7.72424 46.6257 8.68473 46.3126 9.5468C46.105 10.1136 45.8236 10.6329 45.4613 11.0843C44.3637 12.4419 42.137 13.1716 40.3042 12.8491C39.5162 12.71 38.7775 12.4045 38.19 11.9158C37.5146 11.3558 36.9377 10.7279 36.9377 9.86244V3.72614C36.9377 3.19668 37.7362 2.74867 38.1337 2.52467ZM49.7847 12.5912C52.0853 11.6816 54.1397 9.63504 54.1678 7.15065C54.1678 6.98435 54.1643 6.81465 54.1467 6.64495C53.999 5.12445 53.1793 3.84832 52.036 2.89461C51.1671 2.1683 50.1118 1.68296 49.0002 1.40126C48.2966 1.22478 46.8051 1.0415 46.2106 1.0415H31.2177C31.077 1.0415 30.9609 1.15011 30.9609 1.28587V23.7166C30.9609 23.8524 31.0735 23.961 31.2177 23.961H36.6844C36.8251 23.961 36.9377 23.8524 36.9377 23.7166V20.3125C36.9377 18.0182 36.9377 15.1672 36.9377 13.4159V13.4091C36.9377 13.141 36.9377 12.8695 36.9377 12.6014C36.9377 12.1839 37.1065 12.0889 37.4794 12.2688C38.2498 12.6387 39.0378 12.9747 39.7871 13.3752C39.8117 13.3888 39.8363 13.4024 39.861 13.4159C40.7474 13.8877 41.6515 14.3493 42.4606 14.933C44.1421 16.1447 45.5879 17.5668 46.1789 19.6031C46.2774 19.9425 46.3267 20.2921 46.3267 20.6417C46.3267 21.6904 45.901 22.729 45.1482 23.4994C45.0567 23.5945 44.8562 23.8015 44.8668 23.866C44.8668 23.866 44.8633 23.8728 44.8633 23.8761C44.8633 23.8999 44.8773 23.9203 44.8949 23.9372C44.9125 23.9542 44.9371 23.9644 44.9618 23.9644H53.8512C53.9955 23.9644 54.108 23.8524 54.108 23.7166C54.108 23.7166 54.108 23.7166 54.108 23.7132C54.108 23.7132 54.108 23.7132 54.108 23.7098C54.108 23.6793 54.101 23.6488 54.0904 23.6216C54.0764 23.5978 54.0588 23.5741 54.0447 23.5469C53.6964 23.0175 52.6622 21.8432 52.3069 21.4189C51.4134 20.3532 50.4953 19.3079 49.4821 18.344C47.6001 16.5554 45.3698 15.2555 42.9883 14.1864C42.6048 14.0133 41.8309 13.7248 41.4264 13.5653C41.8344 13.5653 42.0948 13.572 42.2249 13.572C44.5642 13.572 47.586 13.46 49.7776 12.5946" fill="white"/>
<path d="M16.6099 14.2033C16.4094 14.2203 15.7516 14.2814 15.1359 14.4409C13.9716 14.743 13.0851 15.3709 12.6242 15.7069C11.9418 16.2092 10.999 17.0475 10.3342 17.1154C10.0422 17.1459 9.81352 17.0475 9.81352 17.0475C9.57431 16.9457 9.43712 16.7692 9.36676 16.6606L13.9047 5.99331C13.9575 5.87791 14.1299 5.87791 14.1826 5.99331L17.5597 14.1694C17.3064 14.166 16.9863 14.1694 16.6064 14.2033M28.1096 23.608C28.092 23.5469 28.0603 23.4926 28.0322 23.4349L28.0181 23.4044C28.0181 23.4044 28.0076 23.3806 28.0005 23.3671L27.9829 23.3263L27.9618 23.2822L27.9372 23.2313C27.9302 23.2143 27.9196 23.194 27.9126 23.177C27.902 23.1566 27.895 23.1363 27.8844 23.1159C27.8739 23.0955 27.8633 23.0752 27.8528 23.0514C27.8422 23.0277 27.8317 23.0073 27.8211 22.9835C27.8106 22.9598 27.8 22.936 27.7859 22.9123C27.7754 22.8851 27.7613 22.8613 27.7508 22.8342C27.7367 22.807 27.7261 22.7799 27.7121 22.7527C27.698 22.7256 27.6839 22.695 27.6734 22.6679C27.6593 22.6373 27.6452 22.6068 27.6312 22.5796C27.6171 22.5491 27.603 22.5186 27.5889 22.488C27.5749 22.4575 27.5573 22.4235 27.5432 22.3896C27.5291 22.3556 27.5115 22.3217 27.4975 22.2878C27.4799 22.2538 27.4658 22.2165 27.4482 22.1826C27.4306 22.1452 27.413 22.1113 27.399 22.0739C27.3814 22.0366 27.3638 21.9993 27.3462 21.9619C27.3286 21.9246 27.311 21.8839 27.2934 21.8466C27.2759 21.8058 27.2547 21.7685 27.2372 21.7278C27.2196 21.687 27.1985 21.6463 27.1809 21.6056C27.1598 21.5649 27.1422 21.5207 27.1211 21.48C27.1 21.4359 27.0824 21.3952 27.0613 21.351C27.0402 21.3069 27.0191 21.2628 26.9979 21.2187C26.9768 21.1745 26.9557 21.127 26.9346 21.0829C26.9135 21.0354 26.8924 20.9913 26.8713 20.9438C26.8502 20.8962 26.8256 20.8487 26.8045 20.8012C26.7798 20.7537 26.7587 20.7028 26.7376 20.6553C26.713 20.6078 26.6919 20.5568 26.6673 20.5059C26.6427 20.455 26.6215 20.4041 26.5969 20.3532C26.5723 20.3023 26.5477 20.2514 26.5266 20.2005C26.5019 20.1496 26.4773 20.0953 26.4527 20.0444C26.4281 19.99 26.4034 19.9391 26.3788 19.8848C26.3542 19.8305 26.3296 19.7762 26.3014 19.7219C26.2768 19.6676 26.2487 19.6133 26.224 19.559C26.1994 19.5047 26.1713 19.447 26.1466 19.3927C26.122 19.335 26.0939 19.2807 26.0693 19.223C26.0411 19.1653 26.0165 19.1076 25.9883 19.0533C25.9602 18.9956 25.9356 18.9379 25.9074 18.8802C25.8793 18.8225 25.8512 18.7614 25.823 18.7037C25.7949 18.6426 25.7667 18.5849 25.7386 18.5272C25.7104 18.4662 25.6823 18.4085 25.6542 18.3474C25.626 18.2863 25.5979 18.2252 25.5697 18.1641C25.5416 18.103 25.5134 18.0419 25.4853 17.9808L25.3974 17.7941C25.3692 17.7331 25.3375 17.6686 25.3094 17.6075C25.2813 17.543 25.2496 17.4819 25.2215 17.4174C25.1898 17.3529 25.1617 17.2918 25.13 17.2274C25.0983 17.1629 25.0702 17.0984 25.0385 17.0339C25.0069 16.9694 24.9787 16.9049 24.9471 16.8404C24.9154 16.776 24.8873 16.7115 24.8556 16.6436C24.824 16.5791 24.7958 16.5112 24.7642 16.4467C24.7325 16.3789 24.7008 16.3144 24.6727 16.2499C24.641 16.182 24.6094 16.1175 24.5812 16.0496C24.5496 15.9818 24.5179 15.9173 24.4862 15.8494C24.4546 15.7815 24.4229 15.7136 24.3913 15.6492C24.3596 15.5813 24.3279 15.5134 24.2963 15.4455L24.2013 15.2419C24.1696 15.174 24.138 15.1061 24.1063 15.0382C24.0747 14.9704 24.043 14.9025 24.0113 14.8312C23.9797 14.7633 23.948 14.6921 23.9164 14.6242C23.8847 14.5563 23.853 14.485 23.8179 14.4171C23.7862 14.3493 23.7545 14.278 23.7194 14.2101C23.6842 14.1422 23.656 14.071 23.6209 14.0031C23.5892 13.9318 23.554 13.8639 23.5224 13.7927C23.4907 13.7214 23.4555 13.6535 23.4239 13.5822C23.3922 13.511 23.357 13.4431 23.3254 13.3718C23.2937 13.3005 23.2585 13.2327 23.2269 13.1614C23.1952 13.0901 23.16 13.0222 23.1284 12.951C23.0967 12.8797 23.0615 12.8118 23.0299 12.7405C22.9982 12.6693 22.963 12.6014 22.9314 12.5301C22.8997 12.4588 22.8645 12.3909 22.8329 12.3197C22.8012 12.2484 22.766 12.1805 22.7344 12.1092C22.7027 12.038 22.6675 11.9701 22.6359 11.8988C22.6042 11.8275 22.569 11.7597 22.5374 11.6884C22.5057 11.6171 22.4705 11.5492 22.4389 11.478L22.3404 11.2675C22.3087 11.1963 22.2736 11.1284 22.2419 11.0571C22.2102 10.9892 22.1751 10.918 22.1434 10.8467C22.1117 10.7788 22.0766 10.7075 22.0449 10.6397C22.0132 10.5718 21.9816 10.5005 21.9464 10.4326C21.9147 10.3647 21.8831 10.2935 21.8479 10.2256C21.8162 10.1577 21.7846 10.0864 21.7494 10.0186C21.7177 9.95068 21.6861 9.87941 21.6544 9.81153C21.6228 9.74365 21.5911 9.67577 21.5594 9.60789C21.5278 9.54001 21.4961 9.47213 21.4645 9.40425C21.4328 9.33637 21.4011 9.26849 21.3695 9.20061C21.3378 9.13273 21.3062 9.06485 21.2745 8.99697C21.2428 8.92909 21.2112 8.86461 21.1795 8.79673C21.1479 8.72885 21.1162 8.66436 21.0845 8.59649C21.0529 8.52861 21.0212 8.46412 20.9896 8.39624C20.9579 8.33176 20.9298 8.26388 20.8981 8.19939C20.8664 8.13491 20.8383 8.06703 20.8066 8.00254C20.775 7.93806 20.7468 7.87357 20.7152 7.80908C20.6835 7.7446 20.6554 7.68011 20.6237 7.61563L20.5322 7.42556C20.5041 7.36108 20.4724 7.29999 20.4443 7.2355C20.4162 7.17441 20.3845 7.10993 20.3564 7.04544C20.3282 6.98435 20.2965 6.91986 20.2684 6.85877C20.2403 6.79768 20.2121 6.73659 20.1805 6.6755C20.1523 6.61441 20.1242 6.55331 20.096 6.49222C20.0679 6.43113 20.0398 6.37004 20.0116 6.31234C19.9835 6.25125 19.9553 6.19355 19.9272 6.13246C19.899 6.07476 19.8709 6.01367 19.8428 5.95598C19.8146 5.89828 19.7865 5.84058 19.7618 5.78288C19.7337 5.72519 19.7091 5.66749 19.6809 5.60979C19.6528 5.55209 19.6282 5.49779 19.6 5.44009C19.5754 5.38579 19.5473 5.32809 19.5226 5.27379C19.498 5.21948 19.4699 5.16179 19.4452 5.10748C19.4206 5.05318 19.396 4.99888 19.3679 4.94457C19.3432 4.89027 19.3186 4.83596 19.294 4.78506C19.2694 4.73075 19.2447 4.67984 19.2201 4.62554C19.1955 4.57463 19.1709 4.52033 19.1462 4.46942C19.1216 4.41851 19.097 4.3676 19.0759 4.31669C19.0513 4.26578 19.0301 4.21487 19.0055 4.16735C18.9809 4.11984 18.9598 4.06893 18.9352 4.02141C18.9141 3.9739 18.8894 3.92638 18.8683 3.87886C18.8472 3.83135 18.8261 3.78383 18.8015 3.73971C18.7804 3.6922 18.7593 3.64807 18.7382 3.60056C18.7171 3.55644 18.696 3.51232 18.6748 3.4648C18.6537 3.42068 18.6326 3.37656 18.6115 3.33243C18.5904 3.28831 18.5728 3.24759 18.5517 3.20346C18.5306 3.16274 18.513 3.12201 18.4919 3.07789C18.4743 3.03716 18.4532 2.99643 18.4356 2.9557C18.418 2.91498 18.4005 2.87764 18.3794 2.83692C18.3618 2.79958 18.3442 2.76225 18.3266 2.72152C18.309 2.68419 18.2914 2.64685 18.2738 2.60952C18.2562 2.57219 18.2422 2.53825 18.2246 2.50431C18.207 2.47037 18.1929 2.43643 18.1753 2.40249C18.1612 2.36855 18.1437 2.33461 18.1296 2.30406C18.1155 2.27352 18.0979 2.23958 18.0839 2.20903C18.0698 2.17848 18.0557 2.14794 18.0416 2.11739C18.0276 2.08685 18.0135 2.0597 17.9994 2.02915C17.9854 2.002 17.9748 1.97485 17.9607 1.9443C17.9467 1.91715 17.9361 1.89 17.922 1.86624L17.8869 1.79157C17.8763 1.76781 17.8658 1.74406 17.8552 1.7203C17.8446 1.69654 17.8341 1.67618 17.8235 1.65242C17.813 1.63205 17.806 1.61169 17.7954 1.59133C17.7848 1.57096 17.7778 1.55399 17.7673 1.53363C17.7602 1.51666 17.7497 1.49969 17.7426 1.47933C17.7356 1.46236 17.7286 1.44878 17.7215 1.43181C17.7145 1.41823 17.7075 1.40126 17.7004 1.38769C17.6934 1.37411 17.6899 1.36054 17.6828 1.35036C17.6793 1.34017 17.6723 1.3266 17.6652 1.31642C17.6617 1.30623 17.6547 1.29605 17.6512 1.28587C17.6477 1.27908 17.6441 1.2689 17.6406 1.26211C17.6406 1.25532 17.6336 1.24854 17.6301 1.24175C17.6301 1.23835 17.6265 1.23157 17.616 1.2146C17.5667 1.10938 17.4577 1.0415 17.3381 1.0415H10.7668C10.6472 1.0415 10.5382 1.10938 10.4889 1.2146L0.0235018 23.6114C-0.0538897 23.7743 0.0692331 23.9576 0.255676 23.9576H5.7962C5.8947 23.9576 5.98265 23.9033 6.02134 23.8184C6.43644 22.9292 8.70894 18.0792 8.71245 18.0691C8.70894 18.0792 8.91649 18.1234 8.93408 18.1268C9.07479 18.1505 9.20494 18.1268 9.33862 18.086C10.1688 17.8417 10.8829 17.3326 11.583 16.854C12.3112 16.3551 13.0464 15.863 13.852 15.4795C14.0701 15.3776 14.2917 15.2826 14.5168 15.1978C15.8712 14.6955 17.3099 15.1502 18.4392 15.9309C19.4804 16.6504 20.3247 17.6482 20.7785 18.8056C21.3378 20.2208 21.3765 22.2403 20.2508 23.4315C20.2438 23.4417 20.2332 23.4485 20.2262 23.4553C20.2262 23.4553 20.2192 23.4621 20.2086 23.4723C20.1523 23.5266 19.9799 23.7031 19.9201 23.8049C19.9061 23.8286 19.8955 23.8524 19.8955 23.8761C19.8955 23.9203 19.9307 23.9576 19.9799 23.9576H27.8809C27.9055 23.9576 27.9231 23.9508 27.9442 23.944C27.9689 23.9338 28.0005 23.9169 28.0322 23.8897C28.0427 23.8795 28.0849 23.8388 28.1096 23.7743C28.1307 23.7132 28.1272 23.6555 28.1166 23.608" fill="white"/>
<path d="M152.021 22.7722C150.972 22.202 150.016 21.5266 149.175 20.7698C150.019 21.5266 150.972 22.202 152.021 22.7722ZM171.01 4.16987C170.982 4.14272 170.957 4.11217 170.925 4.08502C170.908 4.06805 170.89 4.04769 170.869 4.02732C170.802 3.96623 170.732 3.90854 170.665 3.85084C170.595 3.79314 170.521 3.74223 170.454 3.68114C170.165 3.44696 169.866 3.22295 169.557 3.00913C169.247 2.79531 168.931 2.59167 168.607 2.39822C168.28 2.20476 167.946 2.02488 167.608 1.85179C167.267 1.68209 166.919 1.52257 166.563 1.37324C166.208 1.2239 165.846 1.08814 165.48 0.962567C165.11 0.83699 164.738 0.724989 164.361 0.62317C163.981 0.521351 163.598 0.433108 163.214 0.35844C157.248 -0.819268 149.949 0.850567 146.688 6.1791C145.383 8.31391 144.837 10.8628 145.108 13.3234C145.164 13.6696 145.221 14.0158 145.277 14.362C146.062 17.9799 148.7 21.0617 152.017 22.8774C154.11 24.0246 156.538 24.734 159.032 24.9308C159.292 24.9512 159.552 24.9647 159.809 24.9749C163.394 25.1039 166.862 24.1773 169.652 22.331L169.673 22.3174L169.779 22.2496C169.821 22.2054 169.849 22.1444 169.849 22.0799C169.849 22.0459 169.842 22.012 169.828 21.9814L169.814 21.9611L167.214 18.0241C167.165 17.9766 167.098 17.9494 167.024 17.9494C166.989 17.9494 166.957 17.9562 166.929 17.9698C166.929 17.9698 166.792 18.058 166.785 18.0614C164.811 19.3307 162.827 20.2335 160.397 20.2064C157.639 20.1758 154.926 18.971 153.069 17.0093C152.365 16.266 151.827 15.5023 151.497 14.7659C151.391 14.5283 151.296 14.0599 151.352 13.9208C151.461 13.6696 151.898 13.6187 152.133 13.578C152.569 13.5033 153.023 13.4863 153.463 13.4252C154.659 13.2589 155.848 12.9637 156.963 12.5089C157.786 12.1729 158.638 11.847 159.528 11.7113C160.418 11.5755 161.332 11.623 162.212 11.8165C163.503 12.1016 164.702 12.6887 165.793 13.4151C166.19 13.6798 166.581 13.9683 167.017 14.1685C167.028 14.1719 167.038 14.1753 167.045 14.1787C167.052 14.1787 167.063 14.1855 167.07 14.1889C167.098 14.1991 167.13 14.2058 167.161 14.2058C167.267 14.2058 167.358 14.1448 167.4 14.0565C167.4 14.0497 167.408 14.0429 167.411 14.0361C167.411 14.0361 167.411 14.0361 167.411 14.0328C167.83 12.8279 168.245 11.6196 168.663 10.4148C168.67 10.3978 168.674 10.3842 168.681 10.3673C168.688 10.3469 168.695 10.3265 168.695 10.3028C168.695 10.201 168.632 10.1127 168.544 10.072C168.537 10.072 168.526 10.0652 168.519 10.0618C168.519 10.0618 168.519 10.0618 168.516 10.0618C167.13 9.64435 165.687 9.36944 164.234 9.35926C162.782 9.34568 161.315 9.60362 159.999 10.1976C158.972 10.6625 158.054 11.3244 157.076 11.8844C156.242 12.3629 155.331 12.7736 154.356 12.8822C153.547 12.9704 152.594 12.9569 151.891 12.5123C151.781 12.4444 151.679 12.3663 151.592 12.2747C151.3 11.9862 151.155 11.5959 151.12 11.5009C150.979 11.1207 150.941 10.7236 150.983 10.3265C151.057 9.57308 151.405 8.8264 151.845 8.23246C155.12 3.80672 163.422 3.95266 167.337 7.44845C167.337 7.44845 167.569 7.65548 167.759 7.80482C167.766 7.80821 167.77 7.8116 167.773 7.81839C167.819 7.85912 167.882 7.88627 167.949 7.88627C168.02 7.88627 168.086 7.85912 168.132 7.8116L168.143 7.79803L170.968 4.49569L171.024 4.42781C171.048 4.39048 171.062 4.34975 171.062 4.30224C171.062 4.25472 171.045 4.21399 171.024 4.17666" fill="white"/>
<path d="M115.265 1.0415H109.798C109.658 1.0415 109.545 1.1535 109.542 1.28926C109.542 1.4352 109.549 1.57775 109.57 1.7203C109.714 2.55522 110.182 3.31547 110.78 3.93996C111.3 4.48299 111.909 4.93778 112.528 5.38239C112.669 5.48421 112.81 5.58603 112.95 5.68446C113.503 6.08495 114.051 6.49562 114.53 6.97417C114.973 7.41538 115.48 7.95163 115.515 8.5897V1.30963C115.515 1.30963 115.515 1.30284 115.515 1.29945V1.27908C115.508 1.14672 115.399 1.0415 115.261 1.0415" fill="white"/>
<path d="M221.358 14.1988C221.027 13.9171 220.647 13.6965 220.25 13.5132C217.474 12.2303 214.4 12.1353 211.417 11.7721C210.203 11.6262 208.979 11.4666 207.807 11.1171C206.741 10.798 205.661 10.1566 205.134 9.18929C203.593 6.36889 207.688 4.76015 209.939 4.54972C211.42 4.41057 213.182 4.56669 214.484 5.36428C214.713 5.50343 214.927 5.66295 215.124 5.84622C215.385 6.08719 215.61 6.36211 215.789 6.66078C215.895 6.83726 215.969 7.03072 216.039 7.22078C216.095 7.37351 216.127 7.62806 216.292 7.71291C216.327 7.73327 216.37 7.74685 216.412 7.74685H221.214C221.411 7.74685 221.572 7.75363 221.695 7.74685H221.857C222.104 7.74685 222.118 7.51266 222.111 7.33957C222.068 6.01592 221.527 4.733 220.679 3.69444C220.387 3.33129 220.063 2.99529 219.704 2.69322C218.093 1.33224 215.919 0.588959 213.819 0.263137C209.619 -0.385112 203.931 0.0153771 200.846 3.16498C199.737 4.29518 199.115 5.83265 199.495 7.3769C200.051 9.6305 202.295 10.6826 204.465 11.2019C206.073 11.5888 207.709 11.8502 209.352 12.047C210.854 12.2269 212.665 12.2031 214.065 12.7631C216.176 13.6048 218.104 16.1571 216.38 18.1663C215.557 19.1268 214.051 19.8226 212.757 20.1111C210.861 20.5353 206.499 20.6915 204.972 16.9717C204.961 16.9479 204.951 16.9241 204.94 16.9004C204.898 16.8359 204.824 16.7884 204.74 16.785H198.967C198.83 16.7918 198.717 16.897 198.717 17.0294C198.717 17.0395 198.784 17.328 198.802 17.3993C199.322 19.5613 200.392 21.489 202.291 22.7923C205.978 25.3276 211.378 25.3819 215.652 24.435C217.858 23.9463 220.334 22.9077 221.734 21.1293C223.352 19.0759 223.599 16.1062 221.354 14.1954" fill="white"/>
<path d="M144.35 1.0415H139.059C139.059 1.0415 138.919 1.0415 138.911 1.04829C138.901 1.04829 138.894 1.0415 138.883 1.0415C138.774 1.0415 138.679 1.10938 138.641 1.20441L138.507 1.5506C137.543 4.06893 133.269 15.2079 132.15 17.9944C132.105 18.1064 132.02 18.327 132.01 18.344C131.985 18.3847 131.939 18.4119 131.886 18.4119C131.834 18.4119 131.791 18.3847 131.763 18.344C131.753 18.327 131.704 18.1946 131.682 18.1437C130.789 15.9173 127.169 6.75695 127.049 6.48204C127.049 6.48204 126.335 5.10409 126.49 3.76347C126.525 3.4648 126.631 3.20007 126.631 3.20007C126.677 3.08468 126.874 2.61631 127.338 2.25655C127.982 1.75084 129.276 1.34357 129.431 1.19763C129.449 1.18066 129.491 1.13993 129.48 1.1026C129.47 1.06866 129.435 1.0449 129.399 1.0449C129.399 1.0449 119.303 1.0449 119.3 1.0449C119.159 1.0449 119.043 1.1569 119.043 1.29266C119.043 1.3266 119.05 1.35375 119.061 1.3843L127.869 23.7675L127.894 23.8354C127.939 23.9101 128.017 23.961 128.115 23.961C128.819 23.961 135.095 23.961 135.675 23.961C135.77 23.961 135.851 23.9067 135.893 23.832L135.918 23.7675L144.526 1.54381L144.575 1.41145C144.593 1.37751 144.607 1.34357 144.61 1.29605V1.28248C144.603 1.15011 144.494 1.0449 144.346 1.0449" fill="white"/>
</g>
<defs>
<clipPath id="clip0_1_934">
<rect width="223" height="25" fill="white"/>
</clipPath>
</defs>
</svg>
