<svg width="413" height="70" viewBox="0 0 413 70" fill="none" xmlns="http://www.w3.org/2000/svg">
<path d="M47.578 45.4923L59.282 68H35.5138L26.6908 47.9231H22.0092V68H0.401846V0.476918H34.4335C49.9188 0.476918 57.6614 8.36962 57.6614 24.155C57.6614 34.9587 54.3003 42.0711 47.578 45.4923ZM26.9609 17.7628H22.0092V31.2674H26.9609C29.6018 31.2674 31.4925 30.9974 32.6329 30.4572C33.8333 29.917 34.4335 28.6866 34.4335 26.7659V22.2644C34.4335 20.3437 33.8333 19.1133 32.6329 18.5731C31.4925 18.0329 29.6018 17.7628 26.9609 17.7628ZM65.2493 0.476918H86.8567V51.1642H94.5093C97.2703 51.1642 99.1309 50.8041 100.091 50.0839C101.112 49.3636 101.622 47.8031 101.622 45.4023V0.476918H123.229V38.3799C123.229 44.1418 122.839 49.0035 122.059 52.9649C121.338 56.9262 119.898 60.1673 117.737 62.6882C115.637 65.149 112.696 66.9196 108.914 68C105.133 69.0804 100.241 69.6206 94.2392 69.6206C88.2372 69.6206 83.3455 69.0804 79.5642 68C75.7829 66.9196 72.8119 65.149 70.6512 62.6882C68.5504 60.2273 67.11 57.0162 66.3297 53.0549C65.6094 49.0335 65.2493 44.1418 65.2493 38.3799V0.476918ZM192.331 68H171.984L155.509 44.0518C155.209 43.6317 154.969 43.0015 154.788 42.1612C154.608 41.3209 154.488 40.2105 154.428 38.83H153.978V68H132.371V0.476918H152.718L169.193 24.4251C169.493 24.8452 169.734 25.4755 169.914 26.3158C170.094 27.156 170.214 28.2664 170.274 29.6469H170.724V0.476918H192.331V68ZM258.696 38.1998L263.828 0.476918H286.425L275.892 68H247.622L242.67 43.1515H241.41L236.548 68H208.369L197.745 0.476918H220.343L225.385 38.1998H226.015L233.847 0.476918H250.323L258.066 38.1998H258.696ZM310.405 57.2863L307.974 68H285.197L302.663 0.476918H336.064L353.53 68H330.752L328.231 57.2863H310.405ZM319.948 21.184H318.778L314.367 40.0905H324.27L319.948 21.184ZM352.31 0.476918H376.168L382.11 24.245H382.92L388.952 0.476918H412.81L393.364 49.6337V68H371.756V49.6337L352.31 0.476918Z" fill="#0B0B0B"/>
</svg>
