<?xml version="1.0" standalone="no"?>
<!DOCTYPE svg PUBLIC "-//W3C//DTD SVG 20010904//EN"
 "http://www.w3.org/TR/2001/REC-SVG-20010904/DTD/svg10.dtd">
<svg version="1.0" xmlns="http://www.w3.org/2000/svg"
 width="150pt" height="50pt" viewBox="0 0 7818.000000 2789.000000"
 preserveAspectRatio="xMidYMid meet">

<g transform="translate(0.000000,2789.000000) scale(0.100000,-0.100000)"
fill="#000000" stroke="none">
<path d="M54095 22754 c-502 -30 -833 -68 -1191 -139 -1176 -233 -2123 -722
-2894 -1495 -196 -196 -328 -348 -493 -565 -909 -1202 -1401 -2819 -1527
-5020 -41 -727 -41 -1867 0 -2600 99 -1746 413 -3084 985 -4192 284 -552 606
-995 1030 -1419 206 -206 360 -341 567 -495 766 -572 1721 -933 2826 -1069
671 -82 1434 -86 2102 -9 1775 203 3205 962 4145 2199 717 944 1131 2151 1208
3518 l3 62 -1523 0 -1523 0 0 -23 c0 -56 -33 -364 -51 -482 -139 -886 -508
-1579 -1091 -2048 -278 -224 -641 -411 -1005 -517 -583 -171 -1313 -204 -1923
-89 -490 93 -938 294 -1300 586 -176 141 -400 385 -529 576 -490 727 -753
1669 -856 3067 -64 885 -71 2129 -15 3035 95 1527 356 2512 862 3252 460 672
1137 1080 1993 1202 211 30 374 41 609 41 1466 0 2512 -633 3010 -1822 146
-349 248 -795 286 -1248 6 -74 13 -141 15 -148 4 -10 313 -12 1522 -10 l1518
3 -3 70 c-2 39 -10 148 -18 244 -48 568 -156 1095 -329 1616 -239 717 -566
1312 -1025 1865 -134 161 -419 451 -585 595 -969 838 -2184 1311 -3705 1441
-173 14 -939 27 -1095 18z"/>
<path d="M26876 22303 c-89 -271 -5276 -16301 -5276 -16308 0 -3 708 -5 1573
-5 l1572 0 489 1685 489 1685 2948 0 2947 0 16 -52 c8 -29 232 -788 498 -1685
l483 -1633 1573 0 c864 0 1572 4 1572 8 0 4 -1199 3711 -2663 8237 l-2664
8230 -1751 3 -1750 2 -56 -167z m3980 -10325 l7 -28 -2193 0 -2192 0 7 28 c10
39 2184 7424 2191 7442 5 12 2157 -7334 2180 -7442z"/>
<path d="M35100 21165 l0 -1305 2230 0 2230 0 0 -6935 0 -6935 1530 0 1530 0
0 6935 0 6935 2230 0 2230 0 0 1305 0 1305 -5990 0 -5990 0 0 -1305z"/>
<path d="M63030 14230 l0 -8240 1535 0 1535 0 0 3570 0 3570 2790 0 2790 0 0
-3570 0 -3570 1530 0 1530 0 0 8240 0 8240 -1530 0 -1530 0 0 -3375 0 -3375
-2790 0 -2790 0 0 3375 0 3375 -1535 0 -1535 0 0 -8240z"/>
<path d="M3440 14225 l0 -8235 1485 0 1485 0 2 5227 3 5226 1999 -5226 1999
-5227 1343 0 1342 0 44 113 c24 61 923 2412 1998 5223 l1955 5111 3 -5224 2
-5223 1490 0 1490 0 0 8235 0 8235 -1627 -2 -1627 -3 -2527 -6603 c-1390
-3632 -2529 -6605 -2531 -6607 -2 -2 -1147 2970 -2543 6605 l-2540 6610 -1622
0 -1623 0 0 -8235z"/>
</g>
</svg>
